<?xml version="1.0" encoding="UTF-8" standalone="no"?>
<svg
   xmlns:dc="http://purl.org/dc/elements/1.1/"
   xmlns:cc="http://creativecommons.org/ns#"
   xmlns:rdf="http://www.w3.org/1999/02/22-rdf-syntax-ns#"
   xmlns:svg="http://www.w3.org/2000/svg"
   xmlns="http://www.w3.org/2000/svg"
   xmlns:sodipodi="http://sodipodi.sourceforge.net/DTD/sodipodi-0.dtd"
   xmlns:inkscape="http://www.inkscape.org/namespaces/inkscape"
   width="64"
   height="64"
   version="1.1"
   id="svg8"
   sodipodi:docname="handshake.svg"
   inkscape:export-filename="/tmp/mozilla_mikela0/handshake.svg.png"
   inkscape:export-xdpi="94.08638"
   inkscape:export-ydpi="94.08638"
   inkscape:version="0.92.1 r15371">
  <metadata
     id="metadata14">
    <rdf:RDF>
      <cc:Work
         rdf:about="">
        <dc:format>image/svg+xml</dc:format>
        <dc:type
           rdf:resource="http://purl.org/dc/dcmitype/StillImage" />
        <dc:title></dc:title>
      </cc:Work>
    </rdf:RDF>
  </metadata>
  <defs
     id="defs12" />
  <sodipodi:namedview
     pagecolor="#ffffff"
     bordercolor="#666666"
     borderopacity="1"
     objecttolerance="10"
     gridtolerance="10"
     guidetolerance="10"
     inkscape:pageopacity="0"
     inkscape:pageshadow="2"
     inkscape:window-width="1187"
     inkscape:window-height="792"
     id="namedview10"
     showgrid="false"
     inkscape:zoom="3.6875"
     inkscape:cx="32"
     inkscape:cy="32"
     inkscape:window-x="1026"
     inkscape:window-y="481"
     inkscape:window-maximized="0"
     inkscape:current-layer="svg8" />
  <path
     fill="#FDCA47"
     d="M62 29.937V7.457l-11.759 6.342c-5.024-.851-6.418-.844-10.313-2.795-2.316-1.159-4.465-1.79-6.781.446-2.216-2.407-16.61 1.09-18.207 1.822C10.583 12.084 2 7 2 7v25.437l2.915.678c.299.894.961 2.987.961 2.987-2.71 3.528.547 7.543 3.561 6.211-1.322 3.438 2.188 6.677 5.016 4.484-.412 3.225 3.014 5.557 5.465 3.314-1.124 3.868 3.225 6.724 5.748 3.576 1.841 1.268 3.537 2.247 5.025 2.775v-.002c2.561 1.111 5.432-1.395 4.955-4.508 3.021 3.499 7.394.072 6.417-3.751 3.358 2.575 7.44-1.784 5.245-5.618 3.7 2.143 6.924-3.629 3.333-7.296L62 29.937z"
     id="path2" />
  <path
     fill="#CC9200"
     d="M9.741 33.489c1.905.886 2.127 3.255.359 5.913-1.344 2.02-2.117 2.947-3.123 2.879a2.946 2.946 0 0 0 2.463.024c.164-.425.381-.851.701-1.269l.842-1.022c.504-.659 1.06-1.069 1.621-1.316 1.454-2.604.293-5.365-2.863-5.209zM15.17 44.81l1.978-3.072c.41-1.773-.965-3.313-3.137-3.313 1.903.884 1.949 3.39.221 6.071-1.229 1.906-1.984 2.79-2.988 2.721.97.449 2.139.4 3.209-.428a4.85 4.85 0 0 1 .717-1.979zm5.237-5.599c1.978.664 3.117 3.467 1.557 6.285-3.051 5.512-4.127 5.291-5.139 5.336 1.292.432 3.178 1.454 6.648-4.715 2.436-4.328-.124-7.417-3.066-6.906zm-13.64-4.097c-.959-1.118-1.354-3.419-1.354-3.419L2 30.063v2.373l2.614.711a11.433 11.433 0 0 0 1.268 2.946l.885-.979z"
     id="path4" />
  <path
     fill="#CC9200"
     d="M39.975 10.697c-2.5-1.252-5.052-1.401-7.327.752-7.688 7.273-12.529 8.757-12.045 12.816.23 1.939 2.811 7.922 11.866 2.043l4.839-1.038s4.984 2.828 11.018 9.437a.624.624 0 0 1-.031-.018c.806 1.648-2.247 5.625-4.174 4.984.729 3.297-2.828 5.428-4.912 5.221-.208 2.363-4.064 5.393-6.213 4.662-2.089 3.46-4.524 2.62-6.149 3.068.166-.266.333-.549.503-.871 2.25-4.255.162-6.654-3.519-6.005 2.009.546 3.831 2.104 1.759 5.841-1.533 2.766-2.268 3.205-3.273 3.311.976.266 2.167.514 3.549-.961 5.235 4.954 11.518 3.533 9.928-1.678 2.844 3.154 8.104.235 6.391-3.87 3.359 2.425 7.609-1.71 5.375-5.563 4.25 2.16 7.266-4.444 3.773-7.167L62 29.937v-2.779s-4.31 3.941-12.458 6.325c-1.098-1.379-2.584-3.114-5.301-5.416 1.723-.361 2.57-1.759 4.001-1.983-.462-.499-2.278-.189-3.532.285-2.453.928-8.096-3.121-8.096-3.121l-4.712.677c-3.334 3.237-10.472 4.912-10.889.028-.296-3.459 2.583-2.706 12.583-11.657 1.422-1.272 3.514-2.022 6.117-.784 4.969 2.362 9.281 1.367 13.813 3.481-3.531-2.578-9.755-2.392-13.551-4.296z"
     id="path6" />
</svg>
