<svg xmlns="http://www.w3.org/2000/svg" width="64" height="64"><path fill="#99A8AE" d="M37.609 62l-8.256-1.141V14.982h8.256z"/><path fill="#6E8189" d="M43.562 14.982h-5.953V62l5.953-5.701z"/><path fill="#302C3B" d="M45.846 2c-7.659 0-33.405 8.879-33.405 8.879l23.021 37.875L62 32.789V17.967C62 7.889 55.989 2 45.846 2z"/><path fill="#6E8189" d="M18.154 9.985C7.958 9.985 2 17.013 2 27.09v15.963l33.462 5.701V29.369c0-10.076-7.112-19.384-17.308-19.384z"/><path fill="#4E5E67" d="M18.188 11.144C8.603 11.144 3 17.751 3 27.227v15.008l31.462 5.361V29.369c0-9.473-6.688-18.225-16.274-18.225z"/><path fill="#99A8AE" d="M34.462 47.596L3 42.234l31.462-14.401z"/><path opacity=".5" fill="#302C3B" d="M18.188 11.144c-4.92 0-8.791 1.741-11.395 4.717l9.69 20.202 17.978 6.436v-13.13c.001-9.473-6.687-18.225-16.273-18.225z"/><path fill="#E81C27" d="M60.765 15.286L36.39 26.944l.001 3.103 18.061-9.048v9.287l6.313-3.557z"/></svg>