<svg xmlns="http://www.w3.org/2000/svg" width="64" height="64"><path fill="#99A8AE" d="M37.61 62l-8.257-1.141V14.982h8.257z"/><path fill="#6E8189" d="M43.562 14.982H37.61V62l5.952-5.701zM18.155 9.985c-1.799 0-3.458.229-4.982.645C6.05 12.569 2 18.791 2 27.089v15.963l33.462 5.701V29.369c0-10.077-7.111-19.384-17.307-19.384z"/><path fill="#4E5E67" d="M35.462 48.754L2 43.053l33.462-15.318z"/><path fill="#BEC3CF" d="M43.691 28.899l-30.52 21.193L2 20.754l34.989-9.457z"/><path fill="#CFD8DD" d="M25.544 19.244L13.171 50.092l30.52-21.193z"/><path fill="#E6EBEF" d="M29.733 30.246L2 20.754l34.989-9.457z"/><path fill="#302C3B" d="M45.847 2c-6.896 0-28.448 7.196-32.674 8.63a18.852 18.852 0 0 1 4.982-.645c10.195 0 17.307 9.307 17.307 19.383v19.385L62 32.79V17.967C62 7.889 55.989 2 45.847 2z"/><path fill="#E81C27" d="M36.907 8.017v27.366l2.559-1.262-.007-17.513 10.565-4.004.008-9.095z"/></svg>